<svg width="1214" height="392" viewBox="0 0 1214 392" fill="none" xmlns="http://www.w3.org/2000/svg">
<path d="M499.7 108.89C529.722 108.89 554.06 84.5522 554.06 54.53C554.06 24.5078 529.722 0.169983 499.7 0.169983C469.678 0.169983 445.34 24.5078 445.34 54.53C445.34 84.5522 469.678 108.89 499.7 108.89Z" fill="#FBAB2B"/>
<path d="M442.27 155.27C366.41 155.043 290.36 155.023 214.12 155.21C201.08 155.24 191.49 147.7 187.14 135.46C183.167 124.273 179.093 112.617 174.92 100.49C174.747 99.9967 174.4 99.75 173.88 99.75C159.487 99.63 144.59 99.6833 129.19 99.91C122.077 100.01 117.477 99.7833 115.39 99.23C104.49 96.31 97.55 85.5 100.05 74.23C101.9 65.87 109.03 58.92 117.51 57.73C120.457 57.3167 123.887 57.1167 127.8 57.13C142.327 57.1967 156.727 57.15 171 56.99C180.68 56.8767 187.24 57.14 190.68 57.78C199.273 59.3733 206.28 64.0267 211.7 71.74C213.48 74.2733 215.53 79.03 217.85 86.01C220.577 94.23 223.437 102.71 226.43 111.45C226.53 111.739 226.717 111.99 226.967 112.167C227.216 112.345 227.514 112.44 227.82 112.44C284.507 112.393 341.307 112.35 398.22 112.31C414.653 112.297 431.247 112.367 448 112.52C457.8 112.607 466.597 115.55 474.39 121.35C485.13 129.36 491.53 141.2 489.73 154.6C488.97 160.25 486.97 165.58 484.94 171.24C471.36 209.147 457.803 247.063 444.27 284.99C442.67 289.483 440.867 293.167 438.86 296.04C433.533 303.667 426.557 308.737 417.93 311.25C414.47 312.257 409.327 312.77 402.5 312.79C343.547 312.95 284.787 312.95 226.22 312.79C222.447 312.777 219.323 312.303 216.85 311.37C197.83 304.17 198.26 277.1 217.56 270.41C219.953 269.583 224.813 269.18 232.14 269.2C288.827 269.347 345.34 269.38 401.68 269.3C401.861 269.3 402.038 269.243 402.187 269.137C402.335 269.032 402.448 268.883 402.51 268.71L442.75 155.96C442.91 155.507 442.75 155.277 442.27 155.27Z" fill="#282220"/>
<path d="M62.1643 84.8589L15.0844 84.9411C7.28614 84.9547 0.97545 91.2875 0.989061 99.0857L0.99105 100.226C1.00466 108.024 7.33742 114.335 15.1357 114.321L62.2156 114.239C70.0138 114.225 76.3245 107.893 76.3109 100.094L76.3089 98.9543C76.2953 91.156 69.9626 84.8453 62.1643 84.8589Z" fill="#282220"/>
<path d="M150.406 132.275L87.7656 132.165C79.9453 132.152 73.5946 138.48 73.5809 146.301L73.5792 147.281C73.5656 155.101 79.8942 161.452 87.7145 161.465L150.354 161.575C158.175 161.588 164.525 155.26 164.539 147.439L164.541 146.459C164.554 138.639 158.226 132.288 150.406 132.275Z" fill="#282220"/>
<path d="M127.53 184.75H58.19C50.1598 184.75 43.65 191.26 43.65 199.29V200.25C43.65 208.28 50.1598 214.79 58.19 214.79H127.53C135.56 214.79 142.07 208.28 142.07 200.25V199.29C142.07 191.26 135.56 184.75 127.53 184.75Z" fill="#282220"/>
<path d="M381.324 189.925L215.664 190.215C204.441 190.234 195.36 199.348 195.379 210.57L195.381 211.47C195.401 222.692 204.514 231.774 215.736 231.755L381.396 231.465C392.619 231.446 401.7 222.332 401.681 211.11L401.679 210.21C401.659 198.988 392.546 189.906 381.324 189.925Z" fill="#282220"/>
<path d="M163.49 239.34H87.71C79.6742 239.34 73.16 245.854 73.16 253.89V254.75C73.16 262.786 79.6742 269.3 87.71 269.3H163.49C171.526 269.3 178.04 262.786 178.04 254.75V253.89C178.04 245.854 171.526 239.34 163.49 239.34Z" fill="#282220"/>
<path d="M246.163 385.992C261.029 388.909 275.42 379.345 278.307 364.631C281.194 349.917 271.483 335.624 256.617 332.708C241.751 329.791 227.36 339.355 224.473 354.069C221.586 368.783 231.297 383.076 246.163 385.992Z" fill="#282220"/>
<path d="M400.13 386.57C415.136 386.57 427.3 374.406 427.3 359.4C427.3 344.394 415.136 332.23 400.13 332.23C385.124 332.23 372.96 344.394 372.96 359.4C372.96 374.406 385.124 386.57 400.13 386.57Z" fill="#282220"/>
<path d="M823.65 188.908C834.1 189.488 842.96 194.728 851.34 200.988C851.627 201.201 851.887 201.171 852.12 200.898L867.04 183.448C867.177 183.293 867.25 183.092 867.244 182.884C867.239 182.677 867.155 182.478 867.01 182.328C851.23 165.908 831.48 158.568 808.7 163.528C795.547 166.394 786.153 173.411 780.52 184.578C776.27 192.998 775.37 202.638 777.47 211.698C779.73 221.404 785.213 229.284 793.92 235.338C801.43 240.558 811.33 243.408 820.6 245.998C828.69 248.258 840.63 255.528 833.34 265.718C824.39 278.208 800.79 271.438 790.28 265.098C786.88 263.044 783.663 260.951 780.63 258.818C780.37 258.631 780.133 258.658 779.92 258.898L765.77 274.938C765.549 275.19 765.434 275.517 765.447 275.852C765.46 276.186 765.6 276.503 765.84 276.738C784.87 295.388 812.09 305.778 838.12 296.228C855.31 289.928 866.29 274.048 864.71 255.598C863.35 239.758 853.02 228.198 838.53 222.888C832.29 220.601 825.517 218.221 818.21 215.748C811.54 213.498 806.08 209.148 806.52 201.358C807.02 192.278 815.53 188.458 823.65 188.908Z" stroke="#8A8E94" stroke-width="2"/>
<path d="M564.14 225.688C564.308 225.758 564.443 225.887 564.52 226.048C575.667 249.134 587.15 272.368 598.97 295.748C599.297 296.388 599.643 297.008 600.01 297.608C600.183 297.894 600.44 298.044 600.78 298.058L606.75 298.308C607.457 298.341 607.97 298.038 608.29 297.398C616.75 280.178 625.26 263.258 633.34 245.958C636.54 239.118 639.6 232.838 642.52 227.118C642.733 226.691 643.047 226.381 643.46 226.188C643.545 226.148 643.638 226.131 643.732 226.137C643.825 226.143 643.915 226.173 643.993 226.223C644.071 226.273 644.135 226.342 644.178 226.423C644.221 226.505 644.243 226.596 644.24 226.688C643.92 247.974 643.85 271.504 644.03 297.278C644.03 297.931 644.36 298.258 645.02 298.258L675.89 298.168C676.008 298.169 676.121 298.126 676.21 298.049C676.298 297.971 676.355 297.864 676.37 297.748C676.57 296.288 676.67 294.798 676.67 293.278C676.717 254.878 676.713 218.038 676.66 182.758C676.647 176.931 676.563 171.091 676.41 165.238C676.403 164.924 676.24 164.764 675.92 164.758L641.66 164.708C641.358 164.707 641.063 164.792 640.808 164.953C640.553 165.115 640.349 165.345 640.22 165.618C629.453 188.291 618.717 210.968 608.01 233.648C606.87 236.048 605.78 238.938 604.34 241.048C604.279 241.138 604.196 241.21 604.099 241.258C604.001 241.306 603.893 241.328 603.785 241.321C603.677 241.313 603.572 241.278 603.482 241.218C603.391 241.158 603.318 241.075 603.27 240.978C593.803 221.651 584.323 201.854 574.83 181.588C572.237 176.061 569.433 170.511 566.42 164.938C566.362 164.831 566.277 164.743 566.173 164.681C566.069 164.62 565.951 164.587 565.83 164.588L531.46 164.848C531.35 164.85 531.246 164.895 531.17 164.971C531.093 165.048 531.05 165.151 531.05 165.258L531 297.458C531 297.864 531.207 298.068 531.62 298.068L563.16 298.198C563.303 298.198 563.441 298.141 563.542 298.039C563.643 297.938 563.7 297.801 563.7 297.658C563.807 273.431 563.75 249.528 563.53 225.948C563.53 225.621 563.733 225.534 564.14 225.688Z" stroke="#8A8E94" stroke-width="2"/>
<path d="M876.2 224.448C876.173 236.281 876.18 248.224 876.22 260.278C876.26 274.828 881.54 291.408 896.42 297.118C909.52 302.138 922.25 298.328 932.34 289.348C932.466 289.232 932.55 289.078 932.579 288.91C932.608 288.742 932.58 288.568 932.5 288.418L922.54 269.838C922.471 269.706 922.371 269.593 922.25 269.507C922.129 269.421 921.99 269.364 921.843 269.342C921.696 269.32 921.546 269.332 921.405 269.378C921.264 269.424 921.135 269.503 921.03 269.608C918.47 272.154 915.363 273.278 911.71 272.978C906.26 272.518 905.12 265.968 905.12 261.688C905.14 249.541 905.213 236.998 905.34 224.058C905.343 223.899 905.407 223.747 905.52 223.636C905.632 223.526 905.784 223.465 905.94 223.468L928.48 223.738C928.603 223.739 928.725 223.716 928.839 223.67C928.953 223.624 929.057 223.555 929.144 223.469C929.232 223.382 929.301 223.279 929.348 223.166C929.396 223.052 929.42 222.931 929.42 222.808L929.39 201.058C929.383 200.618 929.16 200.398 928.72 200.398L905.93 200.248C905.617 200.248 905.457 200.088 905.45 199.768L905.19 177.488C905.187 177.412 905.156 177.341 905.102 177.289C905.048 177.237 904.975 177.208 904.9 177.208L876.93 177.098C876.463 177.091 876.23 177.321 876.23 177.788L876.29 199.198C876.29 199.349 876.26 199.5 876.202 199.64C876.143 199.78 876.057 199.907 875.95 200.014C875.842 200.121 875.714 200.206 875.573 200.263C875.433 200.32 875.282 200.349 875.13 200.348L867.99 200.268C867.517 200.268 867.277 200.504 867.27 200.978L867.07 222.488C867.07 222.713 867.156 222.93 867.311 223.092C867.466 223.255 867.677 223.35 867.9 223.358L875.44 223.648C875.947 223.668 876.2 223.934 876.2 224.448Z" stroke="#8A8E94" stroke-width="2"/>
<path d="M1038.23 249.992C1038.41 243.247 1037.22 236.532 1034.72 230.231C1032.23 223.93 1028.49 218.166 1023.7 213.268C1018.92 208.37 1013.19 204.434 1006.85 201.685C1000.5 198.935 993.666 197.427 986.725 197.245C979.784 197.063 972.877 198.212 966.397 200.625C959.917 203.039 953.992 206.669 948.959 211.31C943.926 215.951 939.885 221.511 937.066 227.673C934.247 233.835 932.705 240.479 932.528 247.224C932.351 253.969 933.544 260.683 936.037 266.985C938.529 273.286 942.274 279.05 947.057 283.948C951.84 288.846 957.567 292.782 963.912 295.531C970.257 298.28 977.094 299.788 984.035 299.97C990.976 300.152 997.883 299.003 1004.36 296.59C1010.84 294.177 1016.77 290.546 1021.8 285.905C1026.83 281.264 1030.87 275.704 1033.69 269.542C1036.51 263.38 1038.06 256.737 1038.23 249.992Z" stroke="#8A8E94" stroke-width="2"/>
<path d="M1139.08 257.708C1139.07 257.65 1139.08 257.592 1139.1 257.537C1139.12 257.482 1139.15 257.433 1139.19 257.392C1139.23 257.352 1139.28 257.321 1139.34 257.303C1139.39 257.285 1139.45 257.28 1139.51 257.288C1141.08 257.514 1142.72 257.624 1144.41 257.618C1165.9 257.538 1188.13 257.531 1211.11 257.598C1211.27 257.601 1211.43 257.541 1211.55 257.432C1211.67 257.322 1211.75 257.17 1211.76 257.008C1213.56 235.928 1207.21 217.588 1189.42 205.648C1182.61 201.068 1175.02 198.458 1166.66 197.818C1148.92 196.448 1132.41 203.028 1121.65 217.138C1118.39 221.418 1116 225.324 1114.47 228.858C1111.21 236.411 1109.98 244.784 1110.79 253.978C1112.82 276.948 1131.36 296.268 1154.03 299.728C1167.09 301.721 1179.11 299.588 1190.1 293.328C1195.63 290.174 1200.04 286.321 1203.33 281.768C1203.64 281.341 1203.6 280.954 1203.19 280.608L1185.3 265.328C1185.12 265.173 1184.89 265.097 1184.65 265.116C1184.41 265.135 1184.19 265.247 1184.03 265.428C1172.08 279.328 1151.4 279.228 1141.24 263.538C1140.09 261.758 1139.37 259.814 1139.08 257.708Z" stroke="#8A8E94" stroke-width="2"/>
<path d="M1077.13 211.648C1076.84 208.254 1076.71 204.804 1076.73 201.298C1076.73 200.804 1076.49 200.558 1076 200.558L1048.5 200.508C1048.38 200.508 1048.26 200.556 1048.17 200.642C1048.08 200.729 1048.03 200.846 1048.03 200.968L1048.02 297.308C1048.02 297.496 1048.09 297.676 1048.23 297.81C1048.36 297.943 1048.54 298.018 1048.73 298.018L1076.91 298.108C1077.17 298.108 1077.42 298.002 1077.61 297.815C1077.8 297.627 1077.9 297.373 1077.9 297.108C1077.77 281.474 1077.7 266.458 1077.69 252.058C1077.68 245.858 1078.98 240.538 1081.58 236.098C1087.26 226.408 1098.96 226.138 1108.9 230.408C1109.01 230.453 1109.13 230.472 1109.25 230.462C1109.37 230.451 1109.48 230.412 1109.58 230.348C1109.68 230.284 1109.76 230.197 1109.82 230.094C1109.88 229.991 1109.91 229.875 1109.91 229.758L1110.33 199.508C1110.33 199.371 1110.28 199.239 1110.19 199.137C1110.1 199.034 1109.98 198.967 1109.85 198.948C1097.56 197.248 1085.61 201.408 1079.16 212.118C1077.99 214.058 1077.32 213.901 1077.13 211.648Z" stroke="#8A8E94" stroke-width="2"/>
<path d="M727.61 250.958C727.283 250.671 727.02 250.321 726.82 249.908C722.93 241.878 719.97 233.818 716.58 225.788C713.133 217.628 709.743 209.351 706.41 200.958C706.348 200.801 706.24 200.667 706.101 200.573C705.962 200.478 705.798 200.428 705.63 200.428L684.74 200.258C684.28 200.251 684.03 200.478 683.99 200.938C683.68 204.378 683.55 208.718 682.16 211.928C681.36 213.768 681.78 216.068 682.51 217.818C689.797 235.358 697.987 253.721 707.08 272.908C708.48 275.861 709.82 278.921 711.1 282.088C711.507 283.074 711.423 283.974 710.85 284.788C699.783 300.501 687.327 314.978 673.48 328.218C673.4 328.294 673.339 328.387 673.3 328.49C673.26 328.593 673.244 328.704 673.253 328.813C673.262 328.922 673.295 329.028 673.349 329.122C673.404 329.216 673.48 329.297 673.57 329.358C681.863 335.084 690.407 340.211 699.2 344.738C699.467 344.878 699.703 344.838 699.91 344.618C719.123 324.431 734.84 301.531 747.06 275.918C754.313 260.718 761.4 244.841 768.32 228.288C769.58 225.278 773.33 217.728 772.12 214.708C770.407 210.448 769.407 205.831 769.12 200.858C769.112 200.702 769.044 200.555 768.93 200.449C768.817 200.343 768.666 200.285 768.51 200.288L749.04 200.438C748.888 200.44 748.739 200.487 748.611 200.572C748.484 200.657 748.383 200.777 748.32 200.918C742.987 213.444 737.803 226.158 732.77 239.058C731.23 243.008 729.26 246.658 728.13 250.798C728.116 250.85 728.089 250.899 728.051 250.938C728.014 250.977 727.967 251.006 727.915 251.022C727.862 251.038 727.807 251.041 727.754 251.03C727.701 251.018 727.651 250.993 727.61 250.958Z" stroke="#8A8E94" stroke-width="2"/>
<path d="M985.132 274.687C991.876 274.745 998.368 272.05 1003.18 267.193C1007.99 262.337 1010.73 255.717 1010.79 248.79C1010.85 241.862 1008.23 235.195 1003.5 230.256C998.776 225.316 992.332 222.507 985.588 222.449C978.844 222.39 972.352 225.085 967.54 229.942C962.729 234.798 959.991 241.419 959.931 248.346C959.871 255.273 962.492 261.94 967.218 266.88C971.944 271.819 978.388 274.628 985.132 274.687Z" stroke="#8A8E94" stroke-width="2"/>
<path d="M851.34 200.988C842.96 194.728 834.1 189.488 823.65 188.908C815.53 188.458 807.02 192.278 806.52 201.358C806.08 209.148 811.54 213.498 818.21 215.748C825.517 218.221 832.29 220.601 838.53 222.888C853.02 228.198 863.35 239.758 864.71 255.598C866.29 274.048 855.31 289.928 838.12 296.228C812.09 305.778 784.87 295.388 765.84 276.738C765.6 276.503 765.46 276.186 765.447 275.852C765.434 275.517 765.549 275.19 765.77 274.938L779.92 258.898C780.133 258.658 780.37 258.631 780.63 258.818C783.663 260.951 786.88 263.044 790.28 265.098C800.79 271.438 824.39 278.208 833.34 265.718C840.63 255.528 828.69 248.258 820.6 245.998C811.33 243.408 801.43 240.558 793.92 235.338C785.213 229.284 779.73 221.404 777.47 211.698C775.37 202.638 776.27 192.998 780.52 184.578C786.153 173.411 795.547 166.394 808.7 163.528C831.48 158.568 851.23 165.908 867.01 182.328C867.155 182.478 867.239 182.677 867.244 182.884C867.25 183.092 867.177 183.293 867.04 183.448L852.12 200.898C851.887 201.171 851.627 201.201 851.34 200.988Z" fill="#282220"/>
<path d="M564.14 225.688C563.733 225.534 563.53 225.621 563.53 225.948C563.75 249.528 563.807 273.431 563.7 297.658C563.7 297.801 563.643 297.938 563.542 298.039C563.441 298.141 563.303 298.198 563.16 298.198L531.62 298.068C531.207 298.068 531 297.864 531 297.458L531.05 165.258C531.05 165.151 531.093 165.048 531.17 164.971C531.246 164.895 531.35 164.85 531.46 164.848L565.83 164.588C565.951 164.587 566.069 164.62 566.173 164.681C566.277 164.743 566.362 164.831 566.42 164.938C569.433 170.511 572.237 176.061 574.83 181.588C584.323 201.854 593.803 221.651 603.27 240.978C603.318 241.075 603.391 241.158 603.482 241.218C603.572 241.278 603.677 241.313 603.785 241.321C603.893 241.328 604.001 241.306 604.099 241.258C604.196 241.21 604.279 241.138 604.34 241.048C605.78 238.938 606.87 236.048 608.01 233.648C618.717 210.968 629.453 188.291 640.22 165.618C640.349 165.345 640.553 165.115 640.808 164.953C641.063 164.792 641.358 164.707 641.66 164.708L675.92 164.758C676.24 164.764 676.403 164.924 676.41 165.238C676.563 171.091 676.647 176.931 676.66 182.758C676.713 218.038 676.717 254.878 676.67 293.278C676.67 294.798 676.57 296.288 676.37 297.748C676.355 297.864 676.298 297.971 676.21 298.049C676.121 298.126 676.008 298.169 675.89 298.168L645.02 298.258C644.36 298.258 644.03 297.931 644.03 297.278C643.85 271.504 643.92 247.974 644.24 226.688C644.243 226.596 644.221 226.505 644.178 226.423C644.135 226.342 644.071 226.273 643.993 226.223C643.915 226.173 643.825 226.143 643.732 226.137C643.638 226.131 643.545 226.148 643.46 226.188C643.047 226.381 642.733 226.691 642.52 227.118C639.6 232.838 636.54 239.118 633.34 245.958C625.26 263.258 616.75 280.178 608.29 297.398C607.97 298.038 607.457 298.341 606.75 298.308L600.78 298.058C600.44 298.044 600.183 297.894 600.01 297.608C599.643 297.008 599.297 296.388 598.97 295.748C587.15 272.368 575.667 249.134 564.52 226.048C564.443 225.887 564.308 225.758 564.14 225.688Z" fill="#282220"/>
<path d="M875.44 223.648L867.9 223.358C867.677 223.35 867.466 223.255 867.311 223.092C867.156 222.93 867.07 222.713 867.07 222.488L867.27 200.978C867.277 200.504 867.517 200.268 867.99 200.268L875.13 200.348C875.282 200.349 875.433 200.32 875.573 200.263C875.714 200.206 875.842 200.121 875.95 200.014C876.057 199.907 876.143 199.78 876.202 199.64C876.26 199.5 876.29 199.349 876.29 199.198L876.23 177.788C876.23 177.321 876.463 177.091 876.93 177.098L904.9 177.208C904.975 177.208 905.048 177.237 905.102 177.289C905.156 177.341 905.187 177.412 905.19 177.488L905.45 199.768C905.457 200.088 905.617 200.248 905.93 200.248L928.72 200.398C929.16 200.398 929.383 200.618 929.39 201.058L929.42 222.808C929.42 222.931 929.396 223.052 929.348 223.166C929.301 223.279 929.232 223.382 929.144 223.469C929.057 223.555 928.953 223.624 928.839 223.67C928.725 223.716 928.603 223.739 928.48 223.738L905.94 223.468C905.784 223.465 905.632 223.526 905.52 223.636C905.407 223.747 905.343 223.899 905.34 224.058C905.213 236.998 905.14 249.541 905.12 261.688C905.12 265.968 906.26 272.518 911.71 272.978C915.363 273.278 918.47 272.154 921.03 269.608C921.135 269.503 921.264 269.424 921.405 269.378C921.546 269.332 921.696 269.32 921.843 269.342C921.99 269.364 922.129 269.421 922.25 269.507C922.371 269.593 922.471 269.706 922.54 269.838L932.5 288.418C932.58 288.568 932.608 288.742 932.579 288.91C932.55 289.078 932.466 289.232 932.34 289.348C922.25 298.328 909.52 302.138 896.42 297.118C881.54 291.408 876.26 274.828 876.22 260.278C876.18 248.224 876.173 236.281 876.2 224.448C876.2 223.934 875.947 223.668 875.44 223.648Z" fill="#282220"/>
<path d="M1038.23 249.992C1038.06 256.737 1036.51 263.38 1033.69 269.542C1030.87 275.704 1026.83 281.264 1021.8 285.905C1016.77 290.546 1010.84 294.177 1004.36 296.59C997.883 299.003 990.976 300.152 984.035 299.97C977.094 299.788 970.257 298.28 963.912 295.531C957.567 292.782 951.84 288.846 947.057 283.948C942.274 279.05 938.529 273.286 936.037 266.985C933.544 260.683 932.351 253.969 932.528 247.224C932.705 240.479 934.247 233.835 937.066 227.673C939.885 221.511 943.926 215.951 948.959 211.31C953.992 206.669 959.917 203.039 966.397 200.625C972.877 198.212 979.784 197.063 986.725 197.245C993.666 197.427 1000.5 198.935 1006.85 201.685C1013.19 204.434 1018.92 208.37 1023.7 213.268C1028.49 218.166 1032.23 223.93 1034.72 230.231C1037.22 236.532 1038.41 243.247 1038.23 249.992ZM985.132 274.687C991.876 274.745 998.368 272.05 1003.18 267.193C1007.99 262.337 1010.73 255.717 1010.79 248.79C1010.85 241.862 1008.23 235.195 1003.5 230.256C998.776 225.316 992.332 222.507 985.588 222.449C978.844 222.39 972.352 225.085 967.54 229.942C962.729 234.798 959.992 241.419 959.931 248.346C959.871 255.273 962.492 261.94 967.218 266.88C971.944 271.819 978.388 274.628 985.132 274.687Z" fill="#282220"/>
<path d="M1139.08 257.708C1139.37 259.814 1140.09 261.758 1141.24 263.538C1151.4 279.228 1172.08 279.328 1184.03 265.428C1184.19 265.247 1184.41 265.135 1184.65 265.116C1184.89 265.097 1185.12 265.173 1185.3 265.328L1203.19 280.608C1203.6 280.954 1203.64 281.341 1203.33 281.768C1200.04 286.321 1195.63 290.174 1190.1 293.328C1179.11 299.588 1167.09 301.721 1154.03 299.728C1131.36 296.268 1112.82 276.948 1110.79 253.978C1109.98 244.784 1111.21 236.411 1114.47 228.858C1116 225.324 1118.39 221.418 1121.65 217.138C1132.41 203.028 1148.92 196.448 1166.66 197.818C1175.02 198.458 1182.61 201.068 1189.42 205.648C1207.21 217.588 1213.56 235.928 1211.76 257.008C1211.75 257.17 1211.67 257.322 1211.55 257.432C1211.43 257.541 1211.27 257.601 1211.11 257.598C1188.13 257.531 1165.9 257.538 1144.41 257.618C1142.72 257.624 1141.08 257.514 1139.51 257.288C1139.45 257.28 1139.39 257.285 1139.34 257.303C1139.28 257.321 1139.23 257.352 1139.19 257.392C1139.15 257.433 1139.12 257.482 1139.1 257.537C1139.08 257.592 1139.07 257.65 1139.08 257.708ZM1183.81 239.368C1180.53 227.968 1168.55 220.568 1157.33 223.068C1148.08 225.134 1142.12 230.571 1139.46 239.378C1139.43 239.457 1139.43 239.542 1139.44 239.625C1139.46 239.707 1139.49 239.785 1139.54 239.853C1139.59 239.92 1139.65 239.975 1139.73 240.012C1139.8 240.049 1139.89 240.068 1139.97 240.068L1183.49 239.798C1183.54 239.799 1183.59 239.787 1183.64 239.764C1183.69 239.741 1183.73 239.707 1183.76 239.665C1183.79 239.623 1183.81 239.574 1183.82 239.522C1183.83 239.47 1183.83 239.418 1183.81 239.368Z" fill="#282220"/>
<path d="M1077.13 211.648C1077.32 213.901 1077.99 214.058 1079.16 212.118C1085.61 201.408 1097.56 197.248 1109.85 198.948C1109.98 198.967 1110.1 199.034 1110.19 199.137C1110.28 199.239 1110.33 199.371 1110.33 199.508L1109.91 229.758C1109.91 229.875 1109.88 229.991 1109.82 230.094C1109.76 230.197 1109.68 230.284 1109.58 230.348C1109.48 230.412 1109.37 230.451 1109.25 230.462C1109.13 230.472 1109.01 230.453 1108.9 230.408C1098.96 226.138 1087.26 226.408 1081.58 236.098C1078.98 240.538 1077.68 245.858 1077.69 252.058C1077.7 266.458 1077.77 281.474 1077.9 297.108C1077.9 297.373 1077.8 297.627 1077.61 297.815C1077.42 298.002 1077.17 298.108 1076.91 298.108L1048.73 298.018C1048.54 298.018 1048.36 297.943 1048.23 297.81C1048.09 297.676 1048.02 297.496 1048.02 297.308L1048.03 200.968C1048.03 200.846 1048.08 200.729 1048.17 200.642C1048.26 200.556 1048.38 200.508 1048.5 200.508L1076 200.558C1076.49 200.558 1076.73 200.804 1076.73 201.298C1076.71 204.804 1076.84 208.254 1077.13 211.648Z" fill="#282220"/>
<path d="M727.61 250.958C727.651 250.993 727.701 251.018 727.754 251.03C727.807 251.041 727.862 251.038 727.915 251.022C727.967 251.006 728.014 250.977 728.051 250.938C728.089 250.899 728.116 250.85 728.13 250.798C729.26 246.658 731.23 243.008 732.77 239.058C737.803 226.158 742.987 213.444 748.32 200.918C748.383 200.777 748.484 200.657 748.611 200.572C748.739 200.487 748.888 200.44 749.04 200.438L768.51 200.288C768.666 200.285 768.817 200.343 768.93 200.449C769.044 200.555 769.112 200.702 769.12 200.858C769.407 205.831 770.407 210.448 772.12 214.708C773.33 217.728 769.58 225.278 768.32 228.288C761.4 244.841 754.313 260.718 747.06 275.918C734.84 301.531 719.123 324.431 699.91 344.618C699.703 344.838 699.467 344.878 699.2 344.738C690.407 340.211 681.863 335.084 673.57 329.358C673.48 329.297 673.404 329.216 673.349 329.122C673.295 329.028 673.262 328.922 673.253 328.813C673.244 328.704 673.26 328.593 673.3 328.49C673.339 328.387 673.4 328.294 673.48 328.218C687.327 314.978 699.783 300.501 710.85 284.788C711.423 283.974 711.507 283.074 711.1 282.088C709.82 278.921 708.48 275.861 707.08 272.908C697.987 253.721 689.797 235.358 682.51 217.818C681.78 216.068 681.36 213.768 682.16 211.928C683.55 208.718 683.68 204.378 683.99 200.938C684.03 200.478 684.28 200.251 684.74 200.258L705.63 200.428C705.798 200.428 705.962 200.478 706.101 200.573C706.24 200.667 706.348 200.801 706.41 200.958C709.743 209.351 713.133 217.628 716.58 225.788C719.97 233.818 722.93 241.878 726.82 249.908C727.02 250.321 727.283 250.671 727.61 250.958Z" fill="#282220"/>
<path d="M959.931 248.346C959.805 262.771 971.088 274.564 985.132 274.687C999.176 274.809 1010.66 263.215 1010.79 248.789C1010.91 234.364 999.632 222.571 985.588 222.449C971.544 222.326 960.057 233.921 959.931 248.346Z" fill="none"/>
</svg>
